<?xml version="1.0" standalone="no"?>
<!DOCTYPE svg PUBLIC "-//W3C//DTD SVG 20010904//EN"
 "http://www.w3.org/TR/2001/REC-SVG-20010904/DTD/svg10.dtd">
<svg version="1.0" xmlns="http://www.w3.org/2000/svg"
 width="1280.000000pt" height="720.000000pt" viewBox="0 0 1280.000000 720.000000"
 preserveAspectRatio="xMidYMid meet">

<g transform="translate(0.000000,720.000000) scale(0.100000,-0.100000)"
fill="#000000" stroke="none">
<path d="M9315 5144 c-33 -80 -62 -147 -65 -149 -3 -2 -44 8 -90 21 -76 23
-100 25 -220 22 -123 -3 -140 -6 -186 -30 -91 -48 -167 -158 -200 -291 -8 -34
-18 -70 -20 -79 -3 -11 0 -18 8 -18 7 0 29 35 48 78 45 101 122 181 200 208
87 30 280 26 383 -8 l78 -26 10 21 c5 12 43 101 83 197 66 156 72 176 58 188
-9 6 -18 12 -21 12 -3 0 -33 -66 -66 -146z"/>
<path d="M3955 4813 c-37 -82 -71 -152 -76 -157 -5 -5 -32 3 -66 21 -189 100
-421 136 -637 98 -104 -18 -148 -34 -251 -94 -105 -61 -234 -189 -299 -299
-83 -140 -148 -373 -145 -522 l1 -55 9 58 c43 295 183 531 399 676 158 106
276 136 505 129 141 -4 157 -7 260 -42 61 -20 134 -51 164 -67 29 -17 56 -27
60 -24 3 3 47 95 97 203 90 194 98 222 59 222 -7 0 -42 -66 -80 -147z"/>
<path d="M9076 4383 c-16 -65 -33 -133 -38 -150 l-9 -33 -298 0 -299 0 -10
-42 c-6 -24 -47 -198 -92 -388 -169 -721 -243 -976 -346 -1190 -71 -147 -165
-288 -247 -369 l-65 -64 -179 26 -178 26 -47 -47 c-27 -25 -45 -49 -40 -53 4
-3 97 -18 207 -33 110 -15 208 -30 218 -32 27 -8 139 106 212 216 123 184 218
418 310 760 37 137 255 1048 255 1065 0 2 136 6 302 7 l302 3 48 195 c53 218
53 220 35 220 -8 0 -23 -43 -41 -117z"/>
<path d="M10896 4347 c-154 -399 -367 -819 -595 -1177 -82 -128 -319 -472
-390 -565 -116 -153 -300 -305 -452 -373 -120 -54 -189 -67 -349 -66 -144 1
-157 3 -303 51 -13 4 -21 -4 -32 -31 -8 -19 -15 -42 -15 -49 0 -19 77 -52 170
-73 100 -22 347 -15 435 13 193 63 404 220 546 408 71 93 308 438 390 565 178
280 406 712 519 986 51 125 180 454 180 461 0 2 -10 3 -22 3 -20 0 -30 -19
-82 -153z"/>
<path d="M5540 4343 c-29 -82 -56 -152 -60 -156 -4 -5 -44 1 -89 13 -73 20
-100 22 -244 18 -91 -2 -171 -9 -182 -15 -17 -10 -47 -124 -186 -705 l-165
-693 -241 -3 -241 -2 -11 -51 c-6 -27 -11 -52 -11 -54 0 -3 114 -5 253 -5
l253 0 164 688 c89 378 168 692 174 698 18 19 123 34 231 34 75 0 125 -6 195
-25 52 -13 98 -21 102 -17 4 4 39 96 78 206 57 158 69 200 58 207 -7 5 -16 9
-19 9 -3 0 -30 -66 -59 -147z"/>
<path d="M7446 4409 c-13 -35 -206 -871 -215 -929 -6 -36 -10 -90 -10 -120 l1
-55 8 51 c4 28 60 274 125 548 86 363 115 500 107 508 -8 8 -13 8 -16 -3z"/>
<path d="M9322 4260 c0 -19 2 -27 5 -17 2 9 2 25 0 35 -3 9 -5 1 -5 -18z"/>
<path d="M6579 4211 c-116 -45 -249 -168 -313 -290 -49 -93 -83 -219 -90 -331
l-6 -95 19 85 c38 174 110 304 225 407 115 102 221 140 367 130 l87 -6 12 49
c6 27 9 54 5 60 -4 6 -55 10 -133 10 -97 -1 -138 -5 -173 -19z"/>
<path d="M9333 4145 c0 -22 2 -30 4 -17 2 12 2 30 0 40 -3 9 -5 -1 -4 -23z"/>
<path d="M9343 4040 c0 -25 2 -35 4 -22 2 12 2 32 0 45 -2 12 -4 2 -4 -23z"/>
<path d="M9357 3915 c6 -92 36 -300 74 -505 34 -184 109 -543 115 -549 2 -3 8
0 13 5 5 5 -1 49 -15 104 -38 154 -131 622 -158 800 -34 223 -34 225 -29 145z"/>
<path d="M3900 3945 c0 -6 -237 -996 -250 -1046 -9 -34 -14 -37 -82 -57 -196
-57 -310 -73 -568 -79 -258 -6 -338 3 -489 54 -133 44 -210 91 -309 187 -136
131 -218 297 -258 523 l-13 78 5 -75 c29 -416 223 -703 560 -824 148 -54 201
-60 459 -60 202 0 260 4 365 23 123 21 251 52 300 72 24 9 32 37 164 592 77
320 142 590 144 600 3 11 -1 17 -12 17 -9 0 -16 -2 -16 -5z"/>
<path d="M5675 3270 c21 -272 140 -475 335 -569 110 -54 168 -64 324 -59 121
4 137 7 210 38 44 18 115 57 157 85 l77 51 33 -78 c26 -61 37 -78 53 -78 40 0
421 53 429 59 4 4 0 31 -8 59 -16 52 -17 53 -48 47 -62 -11 -391 -55 -393 -52
-1 1 -16 36 -34 77 -18 41 -34 76 -35 78 -2 2 -34 -18 -71 -44 -223 -153 -473
-176 -701 -64 -158 78 -269 232 -313 435 l-20 90 5 -75z"/>
</g>
</svg>
